# xmcd
#
# Track frame offsets:
#	150
#	15711
#	29706
#	43958
#	58627
#	73011
#	88933
#	104815
#	120153
#	133454
#	156771
#
# Disc length: 2282 seconds
#
# Revision: 2
# Processed by: cddbd v1.5.2PL0 Copyright (c) Steve Scherf et al.
# Submitted via: EZCDAudioConverter 8.2.2.1
#
DISCID=a408e80b
DTITLE=Mitchell Tenpenny - Telling All My Secrets
DYEAR=2018
DGENRE=Country
TTITLE0=Truck I Drove In High School
TTITLE1=Alcohol You Later
TTITLE2=All On You
TTITLE3=Goner
TTITLE4=Chance Worth Taking
TTITLE5=I Get The Picture
TTITLE6=Drunk Me
TTITLE7=Somebody's Got Me
TTITLE8=Somebody Ain't You
TTITLE9=Telling All My Secrets
TTITLE10=Walk Like Him
EXTD=
EXTT0=
EXTT1=
EXTT2=
EXTT3=
EXTT4=
EXTT5=
EXTT6=
EXTT7=
EXTT8=
EXTT9=
EXTT10=
PLAYORDER=
